<svg xmlns="http://www.w3.org/2000/svg" version="1.1" xmlns:xlink="http://www.w3.org/1999/xlink" xmlns:svgjs="http://svgjs.com/svgjs" width="1440" height="560" preserveAspectRatio="none" viewBox="0 0 1440 560">
    <g mask="url(&quot;#SvgjsMask1008&quot;)" fill="none">
        <path d="M-101.18 358.69L-101.18 358.69" stroke="#132e65" stroke-width="1.5"></path>
        <path d="M-101.18 358.69L-46.89 536.37" stroke="#132e65" stroke-width="1.5"></path>
        <path d="M-101.18 358.69L94.92 347.04" stroke="#132e65" stroke-width="1.5"></path>
        <path d="M-101.18 358.69L58.93 535.83" stroke="#132e65" stroke-width="1.5"></path>
        <path d="M-101.18 358.69L217.48 400.16" stroke="#132e65" stroke-width="1.5"></path>
        <path d="M-46.89 536.37L-46.89 536.37" stroke="#132e65" stroke-width="1.5"></path>
        <path d="M-46.89 536.37L58.93 535.83" stroke="#132e65" stroke-width="1.5"></path>
        <path d="M-46.89 536.37L-45.88 685.81" stroke="#132e65" stroke-width="1.5"></path>
        <path d="M-45.88 685.81L-45.88 685.81" stroke="#132e65" stroke-width="1.5"></path>
        <path d="M-45.88 685.81L110.67 660.32" stroke="#132e65" stroke-width="1.5"></path>
        <path d="M-45.88 685.81L58.93 535.83" stroke="#132e65" stroke-width="1.5"></path>
        <path d="M-45.88 685.81L215.23 670.3" stroke="#132e65" stroke-width="1.5"></path>
        <path d="M-45.88 685.81L-101.18 358.69" stroke="#132e65" stroke-width="1.5"></path>
        <path d="M94.92 347.04L94.92 347.04" stroke="#132e65" stroke-width="1.5"></path>
        <path d="M94.92 347.04L217.48 400.16" stroke="#132e65" stroke-width="1.5"></path>
        <path d="M94.92 347.04L58.93 535.83" stroke="#132e65" stroke-width="1.5"></path>
        <path d="M94.92 347.04L239.88 504.51" stroke="#132e65" stroke-width="1.5"></path>
        <path d="M58.93 535.83L58.93 535.83" stroke="#132e65" stroke-width="1.5"></path>
        <path d="M58.93 535.83L110.67 660.32" stroke="#132e65" stroke-width="1.5"></path>
        <path d="M58.93 535.83L239.88 504.51" stroke="#132e65" stroke-width="1.5"></path>
        <path d="M110.67 660.32L110.67 660.32" stroke="#132e65" stroke-width="1.5"></path>
        <path d="M110.67 660.32L215.23 670.3" stroke="#132e65" stroke-width="1.5"></path>
        <path d="M110.67 660.32L-46.89 536.37" stroke="#132e65" stroke-width="1.5"></path>
        <path d="M217.48 400.16L217.48 400.16" stroke="#132e65" stroke-width="1.5"></path>
        <path d="M217.48 400.16L239.88 504.51" stroke="#132e65" stroke-width="1.5"></path>
        <path d="M217.48 400.16L350.99 396.4" stroke="#132e65" stroke-width="1.5"></path>
        <path d="M239.88 504.51L239.88 504.51" stroke="#132e65" stroke-width="1.5"></path>
        <path d="M239.88 504.51L350.99 396.4" stroke="#132e65" stroke-width="1.5"></path>
        <path d="M215.23 670.3L215.23 670.3" stroke="#132e65" stroke-width="1.5"></path>
        <path d="M215.23 670.3L239.88 504.51" stroke="#132e65" stroke-width="1.5"></path>
        <path d="M215.23 670.3L404.92 639.92" stroke="#132e65" stroke-width="1.5"></path>
        <path d="M215.23 670.3L58.93 535.83" stroke="#132e65" stroke-width="1.5"></path>
        <path d="M215.23 670.3L391.63 555.94" stroke="#132e65" stroke-width="1.5"></path>
        <path d="M350.99 396.4L350.99 396.4" stroke="#132e65" stroke-width="1.5"></path>
        <path d="M350.99 396.4L391.63 555.94" stroke="#132e65" stroke-width="1.5"></path>
        <path d="M350.99 396.4L532.26 371.79" stroke="#132e65" stroke-width="1.5"></path>
        <path d="M391.63 555.94L391.63 555.94" stroke="#132e65" stroke-width="1.5"></path>
        <path d="M391.63 555.94L404.92 639.92" stroke="#132e65" stroke-width="1.5"></path>
        <path d="M391.63 555.94L524.04 537.9" stroke="#132e65" stroke-width="1.5"></path>
        <path d="M391.63 555.94L239.88 504.51" stroke="#132e65" stroke-width="1.5"></path>
        <path d="M404.92 639.92L404.92 639.92" stroke="#132e65" stroke-width="1.5"></path>
        <path d="M404.92 639.92L558.43 660.13" stroke="#132e65" stroke-width="1.5"></path>
        <path d="M404.92 639.92L524.04 537.9" stroke="#132e65" stroke-width="1.5"></path>
        <path d="M532.26 371.79L532.26 371.79" stroke="#132e65" stroke-width="1.5"></path>
        <path d="M532.26 371.79L524.04 537.9" stroke="#132e65" stroke-width="1.5"></path>
        <path d="M532.26 371.79L710.63 380.12" stroke="#132e65" stroke-width="1.5"></path>
        <path d="M532.26 371.79L671.42 256.2" stroke="#132e65" stroke-width="1.5"></path>
        <path d="M524.04 537.9L524.04 537.9" stroke="#132e65" stroke-width="1.5"></path>
        <path d="M524.04 537.9L558.43 660.13" stroke="#132e65" stroke-width="1.5"></path>
        <path d="M558.43 660.13L558.43 660.13" stroke="#132e65" stroke-width="1.5"></path>
        <path d="M558.43 660.13L391.63 555.94" stroke="#132e65" stroke-width="1.5"></path>
        <path d="M558.43 660.13L813.44 639.2" stroke="#132e65" stroke-width="1.5"></path>
        <path d="M558.43 660.13L803.72 525.71" stroke="#132e65" stroke-width="1.5"></path>
        <path d="M558.43 660.13L532.26 371.79" stroke="#132e65" stroke-width="1.5"></path>
        <path d="M671.42 256.2L671.42 256.2" stroke="#132e65" stroke-width="1.5"></path>
        <path d="M671.42 256.2L710.63 380.12" stroke="#132e65" stroke-width="1.5"></path>
        <path d="M671.42 256.2L833.65 236.42" stroke="#132e65" stroke-width="1.5"></path>
        <path d="M710.63 380.12L710.63 380.12" stroke="#132e65" stroke-width="1.5"></path>
        <path d="M710.63 380.12L795.88 408.42" stroke="#132e65" stroke-width="1.5"></path>
        <path d="M710.63 380.12L803.72 525.71" stroke="#132e65" stroke-width="1.5"></path>
        <path d="M710.63 380.12L833.65 236.42" stroke="#132e65" stroke-width="1.5"></path>
        <path d="M833.65 236.42L833.65 236.42" stroke="#132e65" stroke-width="1.5"></path>
        <path d="M833.65 236.42L1001.2 208.32" stroke="#132e65" stroke-width="1.5"></path>
        <path d="M833.65 236.42L948.14 365.53" stroke="#132e65" stroke-width="1.5"></path>
        <path d="M795.88 408.42L795.88 408.42" stroke="#132e65" stroke-width="1.5"></path>
        <path d="M795.88 408.42L803.72 525.71" stroke="#132e65" stroke-width="1.5"></path>
        <path d="M795.88 408.42L948.14 365.53" stroke="#132e65" stroke-width="1.5"></path>
        <path d="M795.88 408.42L833.65 236.42" stroke="#132e65" stroke-width="1.5"></path>
        <path d="M795.88 408.42L671.42 256.2" stroke="#132e65" stroke-width="1.5"></path>
        <path d="M803.72 525.71L803.72 525.71" stroke="#132e65" stroke-width="1.5"></path>
        <path d="M803.72 525.71L813.44 639.2" stroke="#132e65" stroke-width="1.5"></path>
        <path d="M803.72 525.71L961.58 541.13" stroke="#132e65" stroke-width="1.5"></path>
        <path d="M813.44 639.2L813.44 639.2" stroke="#132e65" stroke-width="1.5"></path>
        <path d="M813.44 639.2L940.7 653.87" stroke="#132e65" stroke-width="1.5"></path>
        <path d="M813.44 639.2L961.58 541.13" stroke="#132e65" stroke-width="1.5"></path>
        <path d="M1003.28 -75.92L1003.28 -75.92" stroke="#132e65" stroke-width="1.5"></path>
        <path d="M1003.28 -75.92L1157.77 -89.4" stroke="#132e65" stroke-width="1.5"></path>
        <path d="M1003.28 -75.92L1152.78 104.11" stroke="#132e65" stroke-width="1.5"></path>
        <path d="M1003.28 -75.92L1270.09 -51.13" stroke="#132e65" stroke-width="1.5"></path>
        <path d="M1001.2 208.32L1001.2 208.32" stroke="#132e65" stroke-width="1.5"></path>
        <path d="M1001.2 208.32L1119.83 195.21" stroke="#132e65" stroke-width="1.5"></path>
        <path d="M1001.2 208.32L948.14 365.53" stroke="#132e65" stroke-width="1.5"></path>
        <path d="M948.14 365.53L948.14 365.53" stroke="#132e65" stroke-width="1.5"></path>
        <path d="M948.14 365.53L1115.37 399.27" stroke="#132e65" stroke-width="1.5"></path>
        <path d="M961.58 541.13L961.58 541.13" stroke="#132e65" stroke-width="1.5"></path>
        <path d="M961.58 541.13L940.7 653.87" stroke="#132e65" stroke-width="1.5"></path>
        <path d="M961.58 541.13L1096.59 524.82" stroke="#132e65" stroke-width="1.5"></path>
        <path d="M940.7 653.87L940.7 653.87" stroke="#132e65" stroke-width="1.5"></path>
        <path d="M940.7 653.87L1106.46 645.66" stroke="#132e65" stroke-width="1.5"></path>
        <path d="M940.7 653.87L803.72 525.71" stroke="#132e65" stroke-width="1.5"></path>
        <path d="M940.7 653.87L1096.59 524.82" stroke="#132e65" stroke-width="1.5"></path>
        <path d="M940.7 653.87L795.88 408.42" stroke="#132e65" stroke-width="1.5"></path>
        <path d="M1157.77 -89.4L1157.77 -89.4" stroke="#132e65" stroke-width="1.5"></path>
        <path d="M1157.77 -89.4L1270.09 -51.13" stroke="#132e65" stroke-width="1.5"></path>
        <path d="M1157.77 -89.4L1152.78 104.11" stroke="#132e65" stroke-width="1.5"></path>
        <path d="M1152.78 104.11L1152.78 104.11" stroke="#132e65" stroke-width="1.5"></path>
        <path d="M1152.78 104.11L1247.32 111.84" stroke="#132e65" stroke-width="1.5"></path>
        <path d="M1152.78 104.11L1119.83 195.21" stroke="#132e65" stroke-width="1.5"></path>
        <path d="M1152.78 104.11L1262.21 240.42" stroke="#132e65" stroke-width="1.5"></path>
        <path d="M1119.83 195.21L1119.83 195.21" stroke="#132e65" stroke-width="1.5"></path>
        <path d="M1119.83 195.21L1262.21 240.42" stroke="#132e65" stroke-width="1.5"></path>
        <path d="M1115.37 399.27L1115.37 399.27" stroke="#132e65" stroke-width="1.5"></path>
        <path d="M1115.37 399.27L1096.59 524.82" stroke="#132e65" stroke-width="1.5"></path>
        <path d="M1115.37 399.27L1244.38 339.21" stroke="#132e65" stroke-width="1.5"></path>
        <path d="M1096.59 524.82L1096.59 524.82" stroke="#132e65" stroke-width="1.5"></path>
        <path d="M1096.59 524.82L1106.46 645.66" stroke="#132e65" stroke-width="1.5"></path>
        <path d="M1106.46 645.66L1106.46 645.66" stroke="#132e65" stroke-width="1.5"></path>
        <path d="M1270.09 -51.13L1270.09 -51.13" stroke="#132e65" stroke-width="1.5"></path>
        <path d="M1270.09 -51.13L1416.82 -58.27" stroke="#132e65" stroke-width="1.5"></path>
        <path d="M1247.32 111.84L1247.32 111.84" stroke="#132e65" stroke-width="1.5"></path>
        <path d="M1247.32 111.84L1262.21 240.42" stroke="#132e65" stroke-width="1.5"></path>
        <path d="M1262.21 240.42L1262.21 240.42" stroke="#132e65" stroke-width="1.5"></path>
        <path d="M1262.21 240.42L1244.38 339.21" stroke="#132e65" stroke-width="1.5"></path>
        <path d="M1262.21 240.42L1421.17 208.66" stroke="#132e65" stroke-width="1.5"></path>
        <path d="M1244.38 339.21L1244.38 339.21" stroke="#132e65" stroke-width="1.5"></path>
        <path d="M1276.59 504.1L1276.59 504.1" stroke="#132e65" stroke-width="1.5"></path>
        <path d="M1276.59 504.1L1244.38 339.21" stroke="#132e65" stroke-width="1.5"></path>
        <path d="M1276.59 504.1L1096.59 524.82" stroke="#132e65" stroke-width="1.5"></path>
        <path d="M1276.59 504.1L1461.57 541.75" stroke="#132e65" stroke-width="1.5"></path>
        <path d="M1276.59 504.1L1115.37 399.27" stroke="#132e65" stroke-width="1.5"></path>
        <path d="M1276.59 504.1L1455.31 408.78" stroke="#132e65" stroke-width="1.5"></path>
        <path d="M1276.59 504.1L1393.37 684.64" stroke="#132e65" stroke-width="1.5"></path>
        <path d="M1416.82 -58.27L1416.82 -58.27" stroke="#132e65" stroke-width="1.5"></path>
        <path d="M1416.82 -58.27L1436.87 66.97" stroke="#132e65" stroke-width="1.5"></path>
        <path d="M1436.87 66.97L1436.87 66.97" stroke="#132e65" stroke-width="1.5"></path>
        <path d="M1436.87 66.97L1421.17 208.66" stroke="#132e65" stroke-width="1.5"></path>
        <path d="M1436.87 66.97L1551.09 -78.34" stroke="#132e65" stroke-width="1.5"></path>
        <path d="M1436.87 66.97L1247.32 111.84" stroke="#132e65" stroke-width="1.5"></path>
        <path d="M1436.87 66.97L1270.09 -51.13" stroke="#132e65" stroke-width="1.5"></path>
        <path d="M1421.17 208.66L1421.17 208.66" stroke="#132e65" stroke-width="1.5"></path>
        <path d="M1421.17 208.66L1557.01 258.98" stroke="#132e65" stroke-width="1.5"></path>
        <path d="M1421.17 208.66L1247.32 111.84" stroke="#132e65" stroke-width="1.5"></path>
        <path d="M1421.17 208.66L1455.31 408.78" stroke="#132e65" stroke-width="1.5"></path>
        <path d="M1421.17 208.66L1244.38 339.21" stroke="#132e65" stroke-width="1.5"></path>
        <path d="M1455.31 408.78L1455.31 408.78" stroke="#132e65" stroke-width="1.5"></path>
        <path d="M1455.31 408.78L1578.07 380.28" stroke="#132e65" stroke-width="1.5"></path>
        <path d="M1455.31 408.78L1461.57 541.75" stroke="#132e65" stroke-width="1.5"></path>
        <path d="M1455.31 408.78L1547.53 543.66" stroke="#132e65" stroke-width="1.5"></path>
        <path d="M1455.31 408.78L1557.01 258.98" stroke="#132e65" stroke-width="1.5"></path>
        <path d="M1461.57 541.75L1461.57 541.75" stroke="#132e65" stroke-width="1.5"></path>
        <path d="M1461.57 541.75L1547.53 543.66" stroke="#132e65" stroke-width="1.5"></path>
        <path d="M1461.57 541.75L1393.37 684.64" stroke="#132e65" stroke-width="1.5"></path>
        <path d="M1461.57 541.75L1578.07 380.28" stroke="#132e65" stroke-width="1.5"></path>
        <path d="M1393.37 684.64L1393.37 684.64" stroke="#132e65" stroke-width="1.5"></path>
        <path d="M1393.37 684.64L1599.96 704.8" stroke="#132e65" stroke-width="1.5"></path>
        <path d="M1393.37 684.64L1547.53 543.66" stroke="#132e65" stroke-width="1.5"></path>
        <path d="M1551.09 -78.34L1551.09 -78.34" stroke="#132e65" stroke-width="1.5"></path>
        <path d="M1551.09 -78.34L1416.82 -58.27" stroke="#132e65" stroke-width="1.5"></path>
        <path d="M1551.09 -78.34L1270.09 -51.13" stroke="#132e65" stroke-width="1.5"></path>
        <path d="M1551.09 -78.34L1421.17 208.66" stroke="#132e65" stroke-width="1.5"></path>
        <path d="M1551.09 -78.34L1557.01 258.98" stroke="#132e65" stroke-width="1.5"></path>
        <path d="M1557.01 258.98L1557.01 258.98" stroke="#132e65" stroke-width="1.5"></path>
        <path d="M1557.01 258.98L1578.07 380.28" stroke="#132e65" stroke-width="1.5"></path>
        <path d="M1557.01 258.98L1436.87 66.97" stroke="#132e65" stroke-width="1.5"></path>
        <path d="M1557.01 258.98L1547.53 543.66" stroke="#132e65" stroke-width="1.5"></path>
        <path d="M1557.01 258.98L1262.21 240.42" stroke="#132e65" stroke-width="1.5"></path>
        <path d="M1578.07 380.28L1578.07 380.28" stroke="#132e65" stroke-width="1.5"></path>
        <path d="M1578.07 380.28L1547.53 543.66" stroke="#132e65" stroke-width="1.5"></path>
        <path d="M1578.07 380.28L1421.17 208.66" stroke="#132e65" stroke-width="1.5"></path>
        <path d="M1547.53 543.66L1547.53 543.66" stroke="#132e65" stroke-width="1.5"></path>
        <path d="M1599.96 704.8L1599.96 704.8" stroke="#132e65" stroke-width="1.5"></path>
        <path d="M1599.96 704.8L1547.53 543.66" stroke="#132e65" stroke-width="1.5"></path>
        <circle r="5" cx="-101.18" cy="358.69" fill="#132e65"></circle>
        <circle r="5" cx="-46.89" cy="536.37" fill="#132e65"></circle>
        <circle r="5" cx="-45.88" cy="685.81" fill="#132e65"></circle>
        <circle r="5" cx="94.92" cy="347.04" fill="#132e65"></circle>
        <circle r="5" cx="58.93" cy="535.83" fill="#132e65"></circle>
        <circle r="5" cx="110.67" cy="660.32" fill="#132e65"></circle>
        <circle r="5" cx="217.48" cy="400.16" fill="#132e65"></circle>
        <circle r="5" cx="239.88" cy="504.51" fill="#132e65"></circle>
        <circle r="5" cx="215.23" cy="670.3" fill="#132e65"></circle>
        <circle r="5" cx="350.99" cy="396.4" fill="#132e65"></circle>
        <circle r="5" cx="391.63" cy="555.94" fill="#132e65"></circle>
        <circle r="5" cx="404.92" cy="639.92" fill="#132e65"></circle>
        <circle r="5" cx="532.26" cy="371.79" fill="#132e65"></circle>
        <circle r="5" cx="524.04" cy="537.9" fill="#132e65"></circle>
        <circle r="5" cx="558.43" cy="660.13" fill="#132e65"></circle>
        <circle r="5" cx="671.42" cy="256.2" fill="#132e65"></circle>
        <circle r="5" cx="710.63" cy="380.12" fill="#132e65"></circle>
        <circle r="5" cx="833.65" cy="236.42" fill="#132e65"></circle>
        <circle r="5" cx="795.88" cy="408.42" fill="#132e65"></circle>
        <circle r="5" cx="803.72" cy="525.71" fill="#132e65"></circle>
        <circle r="5" cx="813.44" cy="639.2" fill="#132e65"></circle>
        <circle r="5" cx="1003.28" cy="-75.92" fill="#132e65"></circle>
        <circle r="5" cx="1001.2" cy="208.32" fill="#132e65"></circle>
        <circle r="5" cx="948.14" cy="365.53" fill="#132e65"></circle>
        <circle r="5" cx="961.58" cy="541.13" fill="#132e65"></circle>
        <circle r="5" cx="940.7" cy="653.87" fill="#132e65"></circle>
        <circle r="5" cx="1157.77" cy="-89.4" fill="#132e65"></circle>
        <circle r="5" cx="1152.78" cy="104.11" fill="#132e65"></circle>
        <circle r="5" cx="1119.83" cy="195.21" fill="#132e65"></circle>
        <circle r="5" cx="1115.37" cy="399.27" fill="#132e65"></circle>
        <circle r="5" cx="1096.59" cy="524.82" fill="#132e65"></circle>
        <circle r="5" cx="1106.46" cy="645.66" fill="#132e65"></circle>
        <circle r="5" cx="1270.09" cy="-51.13" fill="#132e65"></circle>
        <circle r="5" cx="1247.32" cy="111.84" fill="#132e65"></circle>
        <circle r="5" cx="1262.21" cy="240.42" fill="#132e65"></circle>
        <circle r="5" cx="1244.38" cy="339.21" fill="#132e65"></circle>
        <circle r="5" cx="1276.59" cy="504.1" fill="#132e65"></circle>
        <circle r="5" cx="1416.82" cy="-58.27" fill="#132e65"></circle>
        <circle r="5" cx="1436.87" cy="66.97" fill="#132e65"></circle>
        <circle r="5" cx="1421.17" cy="208.66" fill="#132e65"></circle>
        <circle r="5" cx="1455.31" cy="408.78" fill="#132e65"></circle>
        <circle r="5" cx="1461.57" cy="541.75" fill="#132e65"></circle>
        <circle r="5" cx="1393.37" cy="684.64" fill="#132e65"></circle>
        <circle r="5" cx="1551.09" cy="-78.34" fill="#132e65"></circle>
        <circle r="5" cx="1557.01" cy="258.98" fill="#132e65"></circle>
        <circle r="5" cx="1578.07" cy="380.28" fill="#132e65"></circle>
        <circle r="5" cx="1547.53" cy="543.66" fill="#132e65"></circle>
        <circle r="5" cx="1599.96" cy="704.8" fill="#132e65"></circle>
        <path d="M199.7 521.81L199.7 521.81" stroke="hsl(228.5, 77.2%, 51.5%)" stroke-width="1.5"></path>
        <path d="M199.7 521.81L91.85 554.2" stroke="hsl(228.5, 77.2%, 51.5%)" stroke-width="1.5"></path>
        <path d="M199.7 521.81L246.04 666.77" stroke="hsl(228.5, 77.2%, 51.5%)" stroke-width="1.5"></path>
        <path d="M385.73 512.81L385.73 512.81" stroke="hsl(228.5, 77.2%, 51.5%)" stroke-width="1.5"></path>
        <path d="M385.73 512.81L489.13 510.87" stroke="hsl(228.5, 77.2%, 51.5%)" stroke-width="1.5"></path>
        <path d="M385.73 512.81L392.58 686.95" stroke="hsl(228.5, 77.2%, 51.5%)" stroke-width="1.5"></path>
        <path d="M642.73 559.03L642.73 559.03" stroke="hsl(228.5, 77.2%, 51.5%)" stroke-width="1.5"></path>
        <path d="M642.73 559.03L707 641.47" stroke="hsl(228.5, 77.2%, 51.5%)" stroke-width="1.5"></path>
        <path d="M642.73 559.03L489.13 510.87" stroke="hsl(228.5, 77.2%, 51.5%)" stroke-width="1.5"></path>
        <path d="M642.73 559.03L827.09 544.92" stroke="hsl(228.5, 77.2%, 51.5%)" stroke-width="1.5"></path>
        <path d="M642.73 559.03L514.8 712.26" stroke="hsl(228.5, 77.2%, 51.5%)" stroke-width="1.5"></path>
        <path d="M642.73 559.03L835.15 642.08" stroke="hsl(228.5, 77.2%, 51.5%)" stroke-width="1.5"></path>
        <path d="M1425.49 357.49L1425.49 357.49" stroke="hsl(228.5, 77.2%, 51.5%)" stroke-width="1.5"></path>
        <path d="M1425.49 357.49L1394.59 246.17" stroke="hsl(228.5, 77.2%, 51.5%)" stroke-width="1.5"></path>
        <path d="M1425.49 357.49L1258.04 391.5" stroke="hsl(228.5, 77.2%, 51.5%)" stroke-width="1.5"></path>
        <path d="M1581.64 649.05L1581.64 649.05" stroke="hsl(228.5, 77.2%, 51.5%)" stroke-width="1.5"></path>
        <path d="M1581.64 649.05L1555.49 555.86" stroke="hsl(228.5, 77.2%, 51.5%)" stroke-width="1.5"></path>
        <path d="M1581.64 649.05L1438.85 646.44" stroke="hsl(228.5, 77.2%, 51.5%)" stroke-width="1.5"></path>
        <path d="M1581.64 649.05L1431.17 554.81" stroke="hsl(228.5, 77.2%, 51.5%)" stroke-width="1.5"></path>
        <path d="M1581.64 649.05L1597.45 399.2" stroke="hsl(228.5, 77.2%, 51.5%)" stroke-width="1.5"></path>
        <path d="M1581.64 649.05L1309.86 518.14" stroke="hsl(228.5, 77.2%, 51.5%)" stroke-width="1.5"></path>
        <path d="M1581.64 649.05L1261.93 637.97" stroke="hsl(228.5, 77.2%, 51.5%)" stroke-width="1.5"></path>
        <path d="M-104.89 532.83L-104.89 532.83" stroke="hsl(228.5, 77.2%, 51.5%)" stroke-width="1.5"></path>
        <path d="M-104.89 532.83L-51.36 647.74" stroke="hsl(228.5, 77.2%, 51.5%)" stroke-width="1.5"></path>
        <path d="M-104.89 532.83L91.85 554.2" stroke="hsl(228.5, 77.2%, 51.5%)" stroke-width="1.5"></path>
        <path d="M-104.89 532.83L93.49 664.74" stroke="hsl(228.5, 77.2%, 51.5%)" stroke-width="1.5"></path>
        <path d="M-104.89 532.83L199.7 521.81" stroke="hsl(228.5, 77.2%, 51.5%)" stroke-width="1.5"></path>
        <path d="M-104.89 532.83L246.04 666.77" stroke="hsl(228.5, 77.2%, 51.5%)" stroke-width="1.5"></path>
        <path d="M-104.89 532.83L385.73 512.81" stroke="hsl(228.5, 77.2%, 51.5%)" stroke-width="1.5"></path>
        <path d="M-51.36 647.74L-51.36 647.74" stroke="hsl(228.5, 77.2%, 51.5%)" stroke-width="1.5"></path>
        <path d="M91.85 554.2L91.85 554.2" stroke="hsl(228.5, 77.2%, 51.5%)" stroke-width="1.5"></path>
        <path d="M91.85 554.2L93.49 664.74" stroke="hsl(228.5, 77.2%, 51.5%)" stroke-width="1.5"></path>
        <path d="M91.85 554.2L-51.36 647.74" stroke="hsl(228.5, 77.2%, 51.5%)" stroke-width="1.5"></path>
        <path d="M91.85 554.2L246.04 666.77" stroke="hsl(228.5, 77.2%, 51.5%)" stroke-width="1.5"></path>
        <path d="M93.49 664.74L93.49 664.74" stroke="hsl(228.5, 77.2%, 51.5%)" stroke-width="1.5"></path>
        <path d="M93.49 664.74L-51.36 647.74" stroke="hsl(228.5, 77.2%, 51.5%)" stroke-width="1.5"></path>
        <path d="M93.49 664.74L246.04 666.77" stroke="hsl(228.5, 77.2%, 51.5%)" stroke-width="1.5"></path>
        <path d="M246.04 666.77L246.04 666.77" stroke="hsl(228.5, 77.2%, 51.5%)" stroke-width="1.5"></path>
        <path d="M246.04 666.77L392.58 686.95" stroke="hsl(228.5, 77.2%, 51.5%)" stroke-width="1.5"></path>
        <path d="M246.04 666.77L385.73 512.81" stroke="hsl(228.5, 77.2%, 51.5%)" stroke-width="1.5"></path>
        <path d="M246.04 666.77L514.8 712.26" stroke="hsl(228.5, 77.2%, 51.5%)" stroke-width="1.5"></path>
        <path d="M392.58 686.95L392.58 686.95" stroke="hsl(228.5, 77.2%, 51.5%)" stroke-width="1.5"></path>
        <path d="M392.58 686.95L514.8 712.26" stroke="hsl(228.5, 77.2%, 51.5%)" stroke-width="1.5"></path>
        <path d="M489.13 510.87L489.13 510.87" stroke="hsl(228.5, 77.2%, 51.5%)" stroke-width="1.5"></path>
        <path d="M489.13 510.87L392.58 686.95" stroke="hsl(228.5, 77.2%, 51.5%)" stroke-width="1.5"></path>
        <path d="M489.13 510.87L514.8 712.26" stroke="hsl(228.5, 77.2%, 51.5%)" stroke-width="1.5"></path>
        <path d="M489.13 510.87L707 641.47" stroke="hsl(228.5, 77.2%, 51.5%)" stroke-width="1.5"></path>
        <path d="M489.13 510.87L246.04 666.77" stroke="hsl(228.5, 77.2%, 51.5%)" stroke-width="1.5"></path>
        <path d="M514.8 712.26L514.8 712.26" stroke="hsl(228.5, 77.2%, 51.5%)" stroke-width="1.5"></path>
        <path d="M514.8 712.26L707 641.47" stroke="hsl(228.5, 77.2%, 51.5%)" stroke-width="1.5"></path>
        <path d="M707 641.47L707 641.47" stroke="hsl(228.5, 77.2%, 51.5%)" stroke-width="1.5"></path>
        <path d="M814.68 373.59L814.68 373.59" stroke="hsl(228.5, 77.2%, 51.5%)" stroke-width="1.5"></path>
        <path d="M814.68 373.59L827.09 544.92" stroke="hsl(228.5, 77.2%, 51.5%)" stroke-width="1.5"></path>
        <path d="M814.68 373.59L1002.92 396.75" stroke="hsl(228.5, 77.2%, 51.5%)" stroke-width="1.5"></path>
        <path d="M814.68 373.59L997.95 503.79" stroke="hsl(228.5, 77.2%, 51.5%)" stroke-width="1.5"></path>
        <path d="M827.09 544.92L827.09 544.92" stroke="hsl(228.5, 77.2%, 51.5%)" stroke-width="1.5"></path>
        <path d="M827.09 544.92L835.15 642.08" stroke="hsl(228.5, 77.2%, 51.5%)" stroke-width="1.5"></path>
        <path d="M827.09 544.92L707 641.47" stroke="hsl(228.5, 77.2%, 51.5%)" stroke-width="1.5"></path>
        <path d="M827.09 544.92L997.95 503.79" stroke="hsl(228.5, 77.2%, 51.5%)" stroke-width="1.5"></path>
        <path d="M835.15 642.08L835.15 642.08" stroke="hsl(228.5, 77.2%, 51.5%)" stroke-width="1.5"></path>
        <path d="M835.15 642.08L707 641.47" stroke="hsl(228.5, 77.2%, 51.5%)" stroke-width="1.5"></path>
        <path d="M1002.92 396.75L1002.92 396.75" stroke="hsl(228.5, 77.2%, 51.5%)" stroke-width="1.5"></path>
        <path d="M1002.92 396.75L997.95 503.79" stroke="hsl(228.5, 77.2%, 51.5%)" stroke-width="1.5"></path>
        <path d="M1002.92 396.75L1131.29 371.38" stroke="hsl(228.5, 77.2%, 51.5%)" stroke-width="1.5"></path>
        <path d="M1002.92 396.75L1159.97 551.67" stroke="hsl(228.5, 77.2%, 51.5%)" stroke-width="1.5"></path>
        <path d="M997.95 503.79L997.95 503.79" stroke="hsl(228.5, 77.2%, 51.5%)" stroke-width="1.5"></path>
        <path d="M997.95 503.79L996.93 656.53" stroke="hsl(228.5, 77.2%, 51.5%)" stroke-width="1.5"></path>
        <path d="M997.95 503.79L1159.97 551.67" stroke="hsl(228.5, 77.2%, 51.5%)" stroke-width="1.5"></path>
        <path d="M997.95 503.79L1131.29 371.38" stroke="hsl(228.5, 77.2%, 51.5%)" stroke-width="1.5"></path>
        <path d="M996.93 656.53L996.93 656.53" stroke="hsl(228.5, 77.2%, 51.5%)" stroke-width="1.5"></path>
        <path d="M996.93 656.53L1111.05 712.44" stroke="hsl(228.5, 77.2%, 51.5%)" stroke-width="1.5"></path>
        <path d="M996.93 656.53L835.15 642.08" stroke="hsl(228.5, 77.2%, 51.5%)" stroke-width="1.5"></path>
        <path d="M996.93 656.53L1159.97 551.67" stroke="hsl(228.5, 77.2%, 51.5%)" stroke-width="1.5"></path>
        <path d="M1121.13 191.76L1121.13 191.76" stroke="hsl(228.5, 77.2%, 51.5%)" stroke-width="1.5"></path>
        <path d="M1121.13 191.76L1267.4 232.29" stroke="hsl(228.5, 77.2%, 51.5%)" stroke-width="1.5"></path>
        <path d="M1121.13 191.76L1131.29 371.38" stroke="hsl(228.5, 77.2%, 51.5%)" stroke-width="1.5"></path>
        <path d="M1131.29 371.38L1131.29 371.38" stroke="hsl(228.5, 77.2%, 51.5%)" stroke-width="1.5"></path>
        <path d="M1131.29 371.38L1258.04 391.5" stroke="hsl(228.5, 77.2%, 51.5%)" stroke-width="1.5"></path>
        <path d="M1131.29 371.38L1159.97 551.67" stroke="hsl(228.5, 77.2%, 51.5%)" stroke-width="1.5"></path>
        <path d="M1159.97 551.67L1159.97 551.67" stroke="hsl(228.5, 77.2%, 51.5%)" stroke-width="1.5"></path>
        <path d="M1159.97 551.67L1261.93 637.97" stroke="hsl(228.5, 77.2%, 51.5%)" stroke-width="1.5"></path>
        <path d="M1159.97 551.67L1309.86 518.14" stroke="hsl(228.5, 77.2%, 51.5%)" stroke-width="1.5"></path>
        <path d="M1159.97 551.67L1111.05 712.44" stroke="hsl(228.5, 77.2%, 51.5%)" stroke-width="1.5"></path>
        <path d="M1111.05 712.44L1111.05 712.44" stroke="hsl(228.5, 77.2%, 51.5%)" stroke-width="1.5"></path>
        <path d="M1111.05 712.44L1261.93 637.97" stroke="hsl(228.5, 77.2%, 51.5%)" stroke-width="1.5"></path>
        <path d="M1111.05 712.44L997.95 503.79" stroke="hsl(228.5, 77.2%, 51.5%)" stroke-width="1.5"></path>
        <path d="M1111.05 712.44L1309.86 518.14" stroke="hsl(228.5, 77.2%, 51.5%)" stroke-width="1.5"></path>
        <path d="M1111.05 712.44L835.15 642.08" stroke="hsl(228.5, 77.2%, 51.5%)" stroke-width="1.5"></path>
        <path d="M1265.24 -66.79L1265.24 -66.79" stroke="hsl(228.5, 77.2%, 51.5%)" stroke-width="1.5"></path>
        <path d="M1265.24 -66.79L1259.08 71.67" stroke="hsl(228.5, 77.2%, 51.5%)" stroke-width="1.5"></path>
        <path d="M1265.24 -66.79L1441.56 -45.72" stroke="hsl(228.5, 77.2%, 51.5%)" stroke-width="1.5"></path>
        <path d="M1259.08 71.67L1259.08 71.67" stroke="hsl(228.5, 77.2%, 51.5%)" stroke-width="1.5"></path>
        <path d="M1259.08 71.67L1267.4 232.29" stroke="hsl(228.5, 77.2%, 51.5%)" stroke-width="1.5"></path>
        <path d="M1259.08 71.67L1121.13 191.76" stroke="hsl(228.5, 77.2%, 51.5%)" stroke-width="1.5"></path>
        <path d="M1259.08 71.67L1461.39 61.13" stroke="hsl(228.5, 77.2%, 51.5%)" stroke-width="1.5"></path>
        <path d="M1259.08 71.67L1441.56 -45.72" stroke="hsl(228.5, 77.2%, 51.5%)" stroke-width="1.5"></path>
        <path d="M1267.4 232.29L1267.4 232.29" stroke="hsl(228.5, 77.2%, 51.5%)" stroke-width="1.5"></path>
        <path d="M1267.4 232.29L1394.59 246.17" stroke="hsl(228.5, 77.2%, 51.5%)" stroke-width="1.5"></path>
        <path d="M1258.04 391.5L1258.04 391.5" stroke="hsl(228.5, 77.2%, 51.5%)" stroke-width="1.5"></path>
        <path d="M1258.04 391.5L1309.86 518.14" stroke="hsl(228.5, 77.2%, 51.5%)" stroke-width="1.5"></path>
        <path d="M1309.86 518.14L1309.86 518.14" stroke="hsl(228.5, 77.2%, 51.5%)" stroke-width="1.5"></path>
        <path d="M1309.86 518.14L1431.17 554.81" stroke="hsl(228.5, 77.2%, 51.5%)" stroke-width="1.5"></path>
        <path d="M1309.86 518.14L1261.93 637.97" stroke="hsl(228.5, 77.2%, 51.5%)" stroke-width="1.5"></path>
        <path d="M1261.93 637.97L1261.93 637.97" stroke="hsl(228.5, 77.2%, 51.5%)" stroke-width="1.5"></path>
        <path d="M1261.93 637.97L1438.85 646.44" stroke="hsl(228.5, 77.2%, 51.5%)" stroke-width="1.5"></path>
        <path d="M1261.93 637.97L1431.17 554.81" stroke="hsl(228.5, 77.2%, 51.5%)" stroke-width="1.5"></path>
        <path d="M1261.93 637.97L1258.04 391.5" stroke="hsl(228.5, 77.2%, 51.5%)" stroke-width="1.5"></path>
        <path d="M1441.56 -45.72L1441.56 -45.72" stroke="hsl(228.5, 77.2%, 51.5%)" stroke-width="1.5"></path>
        <path d="M1441.56 -45.72L1461.39 61.13" stroke="hsl(228.5, 77.2%, 51.5%)" stroke-width="1.5"></path>
        <path d="M1441.56 -45.72L1587.57 45.17" stroke="hsl(228.5, 77.2%, 51.5%)" stroke-width="1.5"></path>
        <path d="M1461.39 61.13L1461.39 61.13" stroke="hsl(228.5, 77.2%, 51.5%)" stroke-width="1.5"></path>
        <path d="M1461.39 61.13L1587.57 45.17" stroke="hsl(228.5, 77.2%, 51.5%)" stroke-width="1.5"></path>
        <path d="M1461.39 61.13L1394.59 246.17" stroke="hsl(228.5, 77.2%, 51.5%)" stroke-width="1.5"></path>
        <path d="M1461.39 61.13L1576.73 221.09" stroke="hsl(228.5, 77.2%, 51.5%)" stroke-width="1.5"></path>
        <path d="M1394.59 246.17L1394.59 246.17" stroke="hsl(228.5, 77.2%, 51.5%)" stroke-width="1.5"></path>
        <path d="M1394.59 246.17L1576.73 221.09" stroke="hsl(228.5, 77.2%, 51.5%)" stroke-width="1.5"></path>
        <path d="M1394.59 246.17L1258.04 391.5" stroke="hsl(228.5, 77.2%, 51.5%)" stroke-width="1.5"></path>
        <path d="M1394.59 246.17L1259.08 71.67" stroke="hsl(228.5, 77.2%, 51.5%)" stroke-width="1.5"></path>
        <path d="M1431.17 554.81L1431.17 554.81" stroke="hsl(228.5, 77.2%, 51.5%)" stroke-width="1.5"></path>
        <path d="M1431.17 554.81L1438.85 646.44" stroke="hsl(228.5, 77.2%, 51.5%)" stroke-width="1.5"></path>
        <path d="M1431.17 554.81L1555.49 555.86" stroke="hsl(228.5, 77.2%, 51.5%)" stroke-width="1.5"></path>
        <path d="M1438.85 646.44L1438.85 646.44" stroke="hsl(228.5, 77.2%, 51.5%)" stroke-width="1.5"></path>
        <path d="M1587.57 45.17L1587.57 45.17" stroke="hsl(228.5, 77.2%, 51.5%)" stroke-width="1.5"></path>
        <path d="M1587.57 45.17L1576.73 221.09" stroke="hsl(228.5, 77.2%, 51.5%)" stroke-width="1.5"></path>
        <path d="M1587.57 45.17L1394.59 246.17" stroke="hsl(228.5, 77.2%, 51.5%)" stroke-width="1.5"></path>
        <path d="M1587.57 45.17L1259.08 71.67" stroke="hsl(228.5, 77.2%, 51.5%)" stroke-width="1.5"></path>
        <path d="M1576.73 221.09L1576.73 221.09" stroke="hsl(228.5, 77.2%, 51.5%)" stroke-width="1.5"></path>
        <path d="M1576.73 221.09L1597.45 399.2" stroke="hsl(228.5, 77.2%, 51.5%)" stroke-width="1.5"></path>
        <path d="M1576.73 221.09L1425.49 357.49" stroke="hsl(228.5, 77.2%, 51.5%)" stroke-width="1.5"></path>
        <path d="M1597.45 399.2L1597.45 399.2" stroke="hsl(228.5, 77.2%, 51.5%)" stroke-width="1.5"></path>
        <path d="M1597.45 399.2L1555.49 555.86" stroke="hsl(228.5, 77.2%, 51.5%)" stroke-width="1.5"></path>
        <path d="M1597.45 399.2L1425.49 357.49" stroke="hsl(228.5, 77.2%, 51.5%)" stroke-width="1.5"></path>
        <path d="M1555.49 555.86L1555.49 555.86" stroke="hsl(228.5, 77.2%, 51.5%)" stroke-width="1.5"></path>
        <circle r="25" cx="199.7" cy="521.81" fill="url(#SvgjsRadialGradient1009)"></circle>
        <circle r="25" cx="385.73" cy="512.81" fill="url(#SvgjsRadialGradient1009)"></circle>
        <circle r="25" cx="642.73" cy="559.03" fill="url(#SvgjsRadialGradient1009)"></circle>
        <circle r="25" cx="1425.49" cy="357.49" fill="url(#SvgjsRadialGradient1009)"></circle>
        <circle r="25" cx="1581.64" cy="649.05" fill="url(#SvgjsRadialGradient1009)"></circle>
        <circle r="5" cx="-104.89" cy="532.83" fill="#8b9ad9"></circle>
        <circle r="5" cx="-51.36" cy="647.74" fill="#8b9ad9"></circle>
        <circle r="5" cx="91.85" cy="554.2" fill="#8b9ad9"></circle>
        <circle r="5" cx="93.49" cy="664.74" fill="#8b9ad9"></circle>
        <circle r="5" cx="246.04" cy="666.77" fill="#8b9ad9"></circle>
        <circle r="5" cx="392.58" cy="686.95" fill="#8b9ad9"></circle>
        <circle r="5" cx="489.13" cy="510.87" fill="#8b9ad9"></circle>
        <circle r="5" cx="514.8" cy="712.26" fill="#8b9ad9"></circle>
        <circle r="5" cx="707" cy="641.47" fill="#8b9ad9"></circle>
        <circle r="5" cx="814.68" cy="373.59" fill="#8b9ad9"></circle>
        <circle r="5" cx="827.09" cy="544.92" fill="#8b9ad9"></circle>
        <circle r="5" cx="835.15" cy="642.08" fill="#8b9ad9"></circle>
        <circle r="5" cx="1002.92" cy="396.75" fill="#8b9ad9"></circle>
        <circle r="5" cx="997.95" cy="503.79" fill="#8b9ad9"></circle>
        <circle r="5" cx="996.93" cy="656.53" fill="#8b9ad9"></circle>
        <circle r="5" cx="1121.13" cy="191.76" fill="#8b9ad9"></circle>
        <circle r="5" cx="1131.29" cy="371.38" fill="#8b9ad9"></circle>
        <circle r="5" cx="1159.97" cy="551.67" fill="#8b9ad9"></circle>
        <circle r="5" cx="1111.05" cy="712.44" fill="#8b9ad9"></circle>
        <circle r="5" cx="1265.24" cy="-66.79" fill="#8b9ad9"></circle>
        <circle r="5" cx="1259.08" cy="71.67" fill="#8b9ad9"></circle>
        <circle r="5" cx="1267.4" cy="232.29" fill="#8b9ad9"></circle>
        <circle r="5" cx="1258.04" cy="391.5" fill="#8b9ad9"></circle>
        <circle r="5" cx="1309.86" cy="518.14" fill="#8b9ad9"></circle>
        <circle r="5" cx="1261.93" cy="637.97" fill="#8b9ad9"></circle>
        <circle r="5" cx="1441.56" cy="-45.72" fill="#8b9ad9"></circle>
        <circle r="5" cx="1461.39" cy="61.13" fill="#8b9ad9"></circle>
        <circle r="5" cx="1394.59" cy="246.17" fill="#8b9ad9"></circle>
        <circle r="5" cx="1431.17" cy="554.81" fill="#8b9ad9"></circle>
        <circle r="5" cx="1438.85" cy="646.44" fill="#8b9ad9"></circle>
        <circle r="5" cx="1587.57" cy="45.17" fill="#8b9ad9"></circle>
        <circle r="5" cx="1576.73" cy="221.09" fill="#8b9ad9"></circle>
        <circle r="5" cx="1597.45" cy="399.2" fill="#8b9ad9"></circle>
        <circle r="5" cx="1555.49" cy="555.86" fill="#8b9ad9"></circle>
    </g>
    <defs>
        <mask id="SvgjsMask1008">
            <rect width="1440" height="560" fill="#ffffff"></rect>
        </mask>
        <radialGradient id="SvgjsRadialGradient1009">
            <stop stop-color="#ffffff" offset="0.1"></stop>
            <stop stop-color="#1735b3" offset="0.2"></stop>
            <stop stop-color="rgba(23, 53, 179, 0)" offset="1"></stop>
        </radialGradient>
    </defs>
</svg>